<svg width="113" height="32" viewBox="0 0 113 32" fill="none" xmlns="http://www.w3.org/2000/svg">
<path d="M7.87 24.74V29.36C7.87 30.2533 7.65 30.9133 7.21 31.34C6.77667 31.7733 6.12 31.99 5.24 31.99C4.75333 31.99 4.29 31.9167 3.85 31.77C3.41667 31.63 3.06333 31.4333 2.79 31.18L3.15 30.64C3.40333 30.8667 3.71 31.0433 4.07 31.17C4.43667 31.2967 4.82 31.36 5.22 31.36C5.88667 31.36 6.37667 31.2033 6.69 30.89C7.00333 30.5833 7.16 30.1033 7.16 29.45V28.78C6.94 29.1133 6.65 29.3667 6.29 29.54C5.93667 29.7133 5.54333 29.8 5.11 29.8C4.61667 29.8 4.16667 29.6933 3.76 29.48C3.36 29.26 3.04333 28.9567 2.81 28.57C2.58333 28.1767 2.47 27.7333 2.47 27.24C2.47 26.7467 2.58333 26.3067 2.81 25.92C3.04333 25.5333 3.36 25.2333 3.76 25.02C4.16 24.8067 4.61 24.7 5.11 24.7C5.55667 24.7 5.96 24.79 6.32 24.97C6.68 25.15 6.97 25.41 7.19 25.75V24.74H7.87ZM5.18 29.17C5.56 29.17 5.90333 29.09 6.21 28.93C6.51667 28.7633 6.75333 28.5333 6.92 28.24C7.09333 27.9467 7.18 27.6133 7.18 27.24C7.18 26.8667 7.09333 26.5367 6.92 26.25C6.75333 25.9567 6.51667 25.73 6.21 25.57C5.91 25.4033 5.56667 25.32 5.18 25.32C4.8 25.32 4.45667 25.4 4.15 25.56C3.85 25.72 3.61333 25.9467 3.44 26.24C3.27333 26.5333 3.19 26.8667 3.19 27.24C3.19 27.6133 3.27333 27.9467 3.44 28.24C3.61333 28.5333 3.85 28.7633 4.15 28.93C4.45667 29.09 4.8 29.17 5.18 29.17ZM14.5248 24.74V30H13.8448V29.04C13.6581 29.36 13.4014 29.61 13.0748 29.79C12.7481 29.9633 12.3748 30.05 11.9548 30.05C11.2614 30.05 10.7148 29.86 10.3148 29.48C9.92143 29.0933 9.72477 28.53 9.72477 27.79V24.74H10.4348V27.72C10.4348 28.2733 10.5714 28.6933 10.8448 28.98C11.1181 29.2667 11.5114 29.41 12.0248 29.41C12.5781 29.41 13.0148 29.2433 13.3348 28.91C13.6548 28.57 13.8148 28.1 13.8148 27.5V24.74H14.5248ZM18.9977 27.26C19.3711 27.3467 19.6577 27.4967 19.8577 27.71C20.0644 27.9233 20.1677 28.1833 20.1677 28.49C20.1677 28.7967 20.0611 29.07 19.8477 29.31C19.6411 29.55 19.3577 29.7367 18.9977 29.87C18.6377 29.9967 18.2411 30.06 17.8077 30.06C17.4277 30.06 17.0544 30.0067 16.6877 29.9C16.3211 29.7867 16.0011 29.6233 15.7277 29.41L15.9677 28.88C16.2077 29.06 16.4877 29.2 16.8077 29.3C17.1277 29.4 17.4511 29.45 17.7777 29.45C18.2644 29.45 18.6611 29.36 18.9677 29.18C19.2811 28.9933 19.4377 28.7433 19.4377 28.43C19.4377 28.15 19.3111 27.9333 19.0577 27.78C18.8044 27.62 18.4577 27.54 18.0177 27.54H17.1177V27.02H17.9777C18.3711 27.02 18.6877 26.9467 18.9277 26.8C19.1677 26.6467 19.2877 26.4433 19.2877 26.19C19.2877 25.91 19.1511 25.69 18.8777 25.53C18.6111 25.37 18.2611 25.29 17.8277 25.29C17.2611 25.29 16.7011 25.4333 16.1477 25.72L15.9477 25.17C16.5744 24.8433 17.2244 24.68 17.8977 24.68C18.2977 24.68 18.6577 24.74 18.9777 24.86C19.3044 24.9733 19.5577 25.1367 19.7377 25.35C19.9244 25.5633 20.0177 25.81 20.0177 26.09C20.0177 26.3567 19.9244 26.5933 19.7377 26.8C19.5577 27.0067 19.3111 27.16 18.9977 27.26ZM26.5595 24.74V30H25.8795V28.96C25.6662 29.3133 25.3829 29.5833 25.0295 29.77C24.6829 29.9567 24.2895 30.05 23.8495 30.05C23.3562 30.05 22.9095 29.9367 22.5095 29.71C22.1095 29.4833 21.7962 29.1667 21.5695 28.76C21.3429 28.3533 21.2295 27.89 21.2295 27.37C21.2295 26.85 21.3429 26.3867 21.5695 25.98C21.7962 25.5733 22.1095 25.26 22.5095 25.04C22.9095 24.8133 23.3562 24.7 23.8495 24.7C24.2762 24.7 24.6595 24.79 24.9995 24.97C25.3462 25.1433 25.6295 25.4 25.8495 25.74V24.74H26.5595ZM23.9095 29.42C24.2762 29.42 24.6062 29.3367 24.8995 29.17C25.1995 28.9967 25.4329 28.7533 25.5995 28.44C25.7729 28.1267 25.8595 27.77 25.8595 27.37C25.8595 26.97 25.7729 26.6133 25.5995 26.3C25.4329 25.9867 25.1995 25.7467 24.8995 25.58C24.6062 25.4067 24.2762 25.32 23.9095 25.32C23.5362 25.32 23.1995 25.4067 22.8995 25.58C22.6062 25.7467 22.3729 25.9867 22.1995 26.3C22.0329 26.6133 21.9495 26.97 21.9495 27.37C21.9495 27.77 22.0329 28.1267 22.1995 28.44C22.3729 28.7533 22.6062 28.9967 22.8995 29.17C23.1995 29.3367 23.5362 29.42 23.9095 29.42ZM33.1869 24.74V30H32.5069V29.04C32.3202 29.36 32.0635 29.61 31.7369 29.79C31.4102 29.9633 31.0369 30.05 30.6169 30.05C29.9235 30.05 29.3769 29.86 28.9769 29.48C28.5835 29.0933 28.3869 28.53 28.3869 27.79V24.74H29.0969V27.72C29.0969 28.2733 29.2335 28.6933 29.5069 28.98C29.7802 29.2667 30.1735 29.41 30.6869 29.41C31.2402 29.41 31.6769 29.2433 31.9969 28.91C32.3169 28.57 32.4769 28.1 32.4769 27.5V24.74H33.1869ZM30.7869 23.99C30.3335 23.99 29.9735 23.8767 29.7069 23.65C29.4402 23.4233 29.3035 23.1033 29.2969 22.69H29.8069C29.8135 22.95 29.9069 23.16 30.0869 23.32C30.2669 23.4733 30.5002 23.55 30.7869 23.55C31.0735 23.55 31.3069 23.4733 31.4869 23.32C31.6735 23.16 31.7702 22.95 31.7769 22.69H32.2869C32.2802 23.1033 32.1402 23.4233 31.8669 23.65C31.6002 23.8767 31.2402 23.99 30.7869 23.99ZM35.2073 24.74H35.9173V27.07H39.2273V24.74H39.9373V30H39.2273V27.68H35.9173V30H35.2073V24.74ZM49.2025 24.74V30H48.5225V29.04C48.3358 29.36 48.0792 29.61 47.7525 29.79C47.4258 29.9633 47.0525 30.05 46.6325 30.05C45.9392 30.05 45.3925 29.86 44.9925 29.48C44.5992 29.0933 44.4025 28.53 44.4025 27.79V24.74H45.1125V27.72C45.1125 28.2733 45.2492 28.6933 45.5225 28.98C45.7958 29.2667 46.1892 29.41 46.7025 29.41C47.2558 29.41 47.6925 29.2433 48.0125 28.91C48.3325 28.57 48.4925 28.1 48.4925 27.5V24.74H49.2025ZM51.2229 24.74H51.9329V27.07H55.2429V24.74H55.9529V30H55.2429V27.68H51.9329V30H51.2229V24.74ZM64.5309 24.7C65.1909 24.7 65.7076 24.89 66.0809 25.27C66.4609 25.65 66.6509 26.21 66.6509 26.95V30H65.9409V27.02C65.9409 26.4733 65.8076 26.0567 65.5409 25.77C65.2809 25.4833 64.9109 25.34 64.4309 25.34C63.8843 25.34 63.4543 25.51 63.1409 25.85C62.8276 26.1833 62.6709 26.6467 62.6709 27.24V30H61.9609V27.02C61.9609 26.4733 61.8276 26.0567 61.5609 25.77C61.3009 25.4833 60.9276 25.34 60.4409 25.34C59.9009 25.34 59.4709 25.51 59.1509 25.85C58.8376 26.1833 58.6809 26.6467 58.6809 27.24V30H57.9709V24.74H58.6509V25.7C58.8376 25.38 59.0976 25.1333 59.4309 24.96C59.7643 24.7867 60.1476 24.7 60.5809 24.7C61.0209 24.7 61.4009 24.7933 61.7209 24.98C62.0476 25.1667 62.2909 25.4433 62.4509 25.81C62.6443 25.4633 62.9209 25.1933 63.2809 25C63.6476 24.8 64.0643 24.7 64.5309 24.7ZM70.738 29.42C71.0647 29.42 71.3647 29.3633 71.638 29.25C71.918 29.13 72.1547 28.9567 72.348 28.73L72.748 29.19C72.5147 29.47 72.2247 29.6833 71.878 29.83C71.5314 29.9767 71.148 30.05 70.728 30.05C70.188 30.05 69.708 29.9367 69.288 29.71C68.868 29.4767 68.5414 29.1567 68.308 28.75C68.0747 28.3433 67.958 27.8833 67.958 27.37C67.958 26.8567 68.068 26.3967 68.288 25.99C68.5147 25.5833 68.8247 25.2667 69.218 25.04C69.6114 24.8133 70.058 24.7 70.558 24.7C71.0247 24.7 71.4447 24.8067 71.818 25.02C72.198 25.2333 72.498 25.53 72.718 25.91C72.9447 26.29 73.0647 26.7233 73.078 27.21L68.758 28.05C68.8914 28.4767 69.1314 28.8133 69.478 29.06C69.8314 29.3 70.2514 29.42 70.738 29.42ZM70.558 25.31C70.1914 25.31 69.8614 25.3967 69.568 25.57C69.2814 25.7367 69.0547 25.9733 68.888 26.28C68.728 26.58 68.648 26.9267 68.648 27.32C68.648 27.42 68.6514 27.4933 68.658 27.54L72.368 26.82C72.288 26.38 72.0847 26.02 71.758 25.74C71.4314 25.4533 71.0314 25.31 70.558 25.31ZM76.9632 24.7C77.4765 24.7 77.9332 24.8133 78.3332 25.04C78.7332 25.2667 79.0432 25.5833 79.2632 25.99C79.4899 26.3967 79.6032 26.86 79.6032 27.38C79.6032 27.9 79.4932 28.3633 79.2732 28.77C79.0532 29.17 78.7465 29.4833 78.3532 29.71C77.9665 29.9367 77.5232 30.05 77.0232 30.05C76.5832 30.05 76.1899 29.9633 75.8432 29.79C75.5032 29.61 75.2265 29.3533 75.0132 29.02V31.94H74.3032V27.39C74.3032 26.8633 74.4132 26.3967 74.6332 25.99C74.8599 25.5833 75.1732 25.2667 75.5732 25.04C75.9799 24.8133 76.4432 24.7 76.9632 24.7ZM76.9432 29.43C77.3165 29.43 77.6532 29.3433 77.9532 29.17C78.2532 28.9967 78.4865 28.7533 78.6532 28.44C78.8199 28.1267 78.9032 27.7733 78.9032 27.38C78.9032 26.9867 78.8199 26.6333 78.6532 26.32C78.4865 26.0067 78.2532 25.7633 77.9532 25.59C77.6532 25.41 77.3165 25.32 76.9432 25.32C76.5699 25.32 76.2332 25.4067 75.9332 25.58C75.6399 25.7533 75.4099 25.9967 75.2432 26.31C75.0832 26.6167 75.0032 26.97 75.0032 27.37C75.0032 27.77 75.0832 28.1267 75.2432 28.44C75.4099 28.7533 75.6399 28.9967 75.9332 29.17C76.2332 29.3433 76.5699 29.43 76.9432 29.43ZM83.255 30.11C82.535 30.11 81.9783 29.93 81.585 29.57C81.1917 29.21 80.995 28.7067 80.995 28.06V24.74H81.705V26.93C81.8783 26.7233 82.115 26.56 82.415 26.44C82.7217 26.32 83.0617 26.26 83.435 26.26C84.0883 26.26 84.595 26.4267 84.955 26.76C85.3217 27.0933 85.505 27.54 85.505 28.1C85.505 28.7067 85.305 29.1933 84.905 29.56C84.505 29.9267 83.955 30.11 83.255 30.11ZM83.265 29.56C83.7383 29.56 84.1083 29.4267 84.375 29.16C84.6483 28.8933 84.785 28.5467 84.785 28.12C84.785 27.72 84.6517 27.4 84.385 27.16C84.1183 26.92 83.7417 26.8 83.255 26.8C82.895 26.8 82.5783 26.8733 82.305 27.02C82.0383 27.1667 81.8383 27.37 81.705 27.63V28.11C81.705 28.5633 81.8417 28.92 82.115 29.18C82.395 29.4333 82.7783 29.56 83.265 29.56ZM89.117 29.42C89.4436 29.42 89.7436 29.3633 90.017 29.25C90.297 29.13 90.5336 28.9567 90.727 28.73L91.127 29.19C90.8936 29.47 90.6036 29.6833 90.257 29.83C89.9103 29.9767 89.527 30.05 89.107 30.05C88.567 30.05 88.087 29.9367 87.667 29.71C87.247 29.4767 86.9203 29.1567 86.687 28.75C86.4536 28.3433 86.337 27.8833 86.337 27.37C86.337 26.8567 86.447 26.3967 86.667 25.99C86.8936 25.5833 87.2036 25.2667 87.597 25.04C87.9903 24.8133 88.437 24.7 88.937 24.7C89.4036 24.7 89.8236 24.8067 90.197 25.02C90.577 25.2333 90.877 25.53 91.097 25.91C91.3236 26.29 91.4436 26.7233 91.457 27.21L87.137 28.05C87.2703 28.4767 87.5103 28.8133 87.857 29.06C88.2103 29.3 88.6303 29.42 89.117 29.42ZM88.937 25.31C88.5703 25.31 88.2403 25.3967 87.947 25.57C87.6603 25.7367 87.4336 25.9733 87.267 26.28C87.107 26.58 87.027 26.9267 87.027 27.32C87.027 27.42 87.0303 27.4933 87.037 27.54L90.747 26.82C90.667 26.38 90.4636 26.02 90.137 25.74C89.8103 25.4533 89.4103 25.31 88.937 25.31ZM95.3421 24.7C95.8554 24.7 96.3121 24.8133 96.7121 25.04C97.1121 25.2667 97.4221 25.5833 97.6421 25.99C97.8688 26.3967 97.9821 26.86 97.9821 27.38C97.9821 27.9 97.8721 28.3633 97.6521 28.77C97.4321 29.17 97.1254 29.4833 96.7321 29.71C96.3454 29.9367 95.9021 30.05 95.4021 30.05C94.9621 30.05 94.5688 29.9633 94.2221 29.79C93.8821 29.61 93.6054 29.3533 93.3921 29.02V31.94H92.6821V27.39C92.6821 26.8633 92.7921 26.3967 93.0121 25.99C93.2388 25.5833 93.5521 25.2667 93.9521 25.04C94.3588 24.8133 94.8221 24.7 95.3421 24.7ZM95.3221 29.43C95.6954 29.43 96.0321 29.3433 96.3321 29.17C96.6321 28.9967 96.8654 28.7533 97.0321 28.44C97.1988 28.1267 97.2821 27.7733 97.2821 27.38C97.2821 26.9867 97.1988 26.6333 97.0321 26.32C96.8654 26.0067 96.6321 25.7633 96.3321 25.59C96.0321 25.41 95.6954 25.32 95.3221 25.32C94.9488 25.32 94.6121 25.4067 94.3121 25.58C94.0188 25.7533 93.7888 25.9967 93.6221 26.31C93.4621 26.6167 93.3821 26.97 93.3821 27.37C93.3821 27.77 93.4621 28.1267 93.6221 28.44C93.7888 28.7533 94.0188 28.9967 94.3121 29.17C94.6121 29.3433 94.9488 29.43 95.3221 29.43ZM101.684 30.05C101.177 30.05 100.721 29.9367 100.314 29.71C99.9072 29.4767 99.5872 29.1567 99.3539 28.75C99.1206 28.3433 99.0039 27.8833 99.0039 27.37C99.0039 26.8567 99.1206 26.3967 99.3539 25.99C99.5872 25.5833 99.9072 25.2667 100.314 25.04C100.721 24.8133 101.177 24.7 101.684 24.7C102.191 24.7 102.647 24.8133 103.054 25.04C103.461 25.2667 103.777 25.5833 104.004 25.99C104.237 26.3967 104.354 26.8567 104.354 27.37C104.354 27.8833 104.237 28.3433 104.004 28.75C103.777 29.1567 103.461 29.4767 103.054 29.71C102.647 29.9367 102.191 30.05 101.684 30.05ZM101.684 29.42C102.057 29.42 102.391 29.3367 102.684 29.17C102.984 28.9967 103.217 28.7533 103.384 28.44C103.551 28.1267 103.634 27.77 103.634 27.37C103.634 26.97 103.551 26.6133 103.384 26.3C103.217 25.9867 102.984 25.7467 102.684 25.58C102.391 25.4067 102.057 25.32 101.684 25.32C101.311 25.32 100.974 25.4067 100.674 25.58C100.381 25.7467 100.147 25.9867 99.9739 26.3C99.8072 26.6133 99.7239 26.97 99.7239 27.37C99.7239 27.77 99.8072 28.1267 99.9739 28.44C100.147 28.7533 100.381 28.9967 100.674 29.17C100.974 29.3367 101.311 29.42 101.684 29.42ZM109.221 27.28C109.935 27.4467 110.291 27.8767 110.291 28.57C110.291 29.03 110.121 29.3833 109.781 29.63C109.441 29.8767 108.935 30 108.261 30H105.871V24.74H108.191C108.791 24.74 109.261 24.8567 109.601 25.09C109.941 25.3233 110.111 25.6567 110.111 26.09C110.111 26.3767 110.031 26.6233 109.871 26.83C109.718 27.03 109.501 27.18 109.221 27.28ZM106.561 27.08H108.141C108.548 27.08 108.858 27.0033 109.071 26.85C109.291 26.6967 109.401 26.4733 109.401 26.18C109.401 25.8867 109.291 25.6667 109.071 25.52C108.858 25.3733 108.548 25.3 108.141 25.3H106.561V27.08ZM108.231 29.44C108.685 29.44 109.025 29.3667 109.251 29.22C109.478 29.0733 109.591 28.8433 109.591 28.53C109.591 28.2167 109.488 27.9867 109.281 27.84C109.075 27.6867 108.748 27.61 108.301 27.61H106.561V29.44H108.231Z" fill="black"/>
<path d="M4.665 14.15C3.855 14.15 3.07 14.035 2.31 13.805C1.56 13.575 0.965 13.27 0.525 12.89L1.2 11.375C1.63 11.715 2.155 11.995 2.775 12.215C3.405 12.425 4.035 12.53 4.665 12.53C5.445 12.53 6.025 12.405 6.405 12.155C6.795 11.905 6.99 11.575 6.99 11.165C6.99 10.865 6.88 10.62 6.66 10.43C6.45 10.23 6.18 10.075 5.85 9.965C5.52 9.855 5.07 9.73 4.5 9.59C3.7 9.4 3.05 9.21 2.55 9.02C2.06 8.83 1.635 8.535 1.275 8.135C0.925 7.725 0.75 7.175 0.75 6.485C0.75 5.905 0.905 5.38 1.215 4.91C1.535 4.43 2.01 4.05 2.64 3.77C3.28 3.49 4.06 3.35 4.98 3.35C5.62 3.35 6.25 3.43 6.87 3.59C7.49 3.75 8.025 3.98 8.475 4.28L7.86 5.795C7.4 5.525 6.92 5.32 6.42 5.18C5.92 5.04 5.435 4.97 4.965 4.97C4.195 4.97 3.62 5.1 3.24 5.36C2.87 5.62 2.685 5.965 2.685 6.395C2.685 6.695 2.79 6.94 3 7.13C3.22 7.32 3.495 7.47 3.825 7.58C4.155 7.69 4.605 7.815 5.175 7.955C5.955 8.135 6.595 8.325 7.095 8.525C7.595 8.715 8.02 9.01 8.37 9.41C8.73 9.81 8.91 10.35 8.91 11.03C8.91 11.61 8.75 12.135 8.43 12.605C8.12 13.075 7.645 13.45 7.005 13.73C6.365 14.01 5.585 14.15 4.665 14.15ZM10.6636 5.99H12.5386V14H10.6636V5.99ZM11.6086 4.67C11.2686 4.67 10.9836 4.565 10.7536 4.355C10.5236 4.135 10.4086 3.865 10.4086 3.545C10.4086 3.225 10.5236 2.96 10.7536 2.75C10.9836 2.53 11.2686 2.42 11.6086 2.42C11.9486 2.42 12.2336 2.525 12.4636 2.735C12.6936 2.935 12.8086 3.19 12.8086 3.5C12.8086 3.83 12.6936 4.11 12.4636 4.34C12.2436 4.56 11.9586 4.67 11.6086 4.67ZM25.1095 5.9C26.1195 5.9 26.9195 6.195 27.5095 6.785C28.0995 7.365 28.3945 8.24 28.3945 9.41V14H26.5195V9.65C26.5195 8.95 26.3645 8.425 26.0545 8.075C25.7445 7.715 25.2995 7.535 24.7195 7.535C24.0895 7.535 23.5845 7.745 23.2045 8.165C22.8245 8.575 22.6345 9.165 22.6345 9.935V14H20.7595V9.65C20.7595 8.95 20.6045 8.425 20.2945 8.075C19.9845 7.715 19.5395 7.535 18.9595 7.535C18.3195 7.535 17.8095 7.74 17.4295 8.15C17.0595 8.56 16.8745 9.155 16.8745 9.935V14H14.9995V5.99H16.7845V7.01C17.0845 6.65 17.4595 6.375 17.9095 6.185C18.3595 5.995 18.8595 5.9 19.4095 5.9C20.0095 5.9 20.5395 6.015 20.9995 6.245C21.4695 6.465 21.8395 6.795 22.1095 7.235C22.4395 6.815 22.8645 6.49 23.3845 6.26C23.9045 6.02 24.4795 5.9 25.1095 5.9ZM35.2305 5.9C36.0105 5.9 36.7055 6.07 37.3155 6.41C37.9355 6.75 38.4205 7.23 38.7705 7.85C39.1205 8.47 39.2955 9.185 39.2955 9.995C39.2955 10.805 39.1205 11.525 38.7705 12.155C38.4205 12.775 37.9355 13.255 37.3155 13.595C36.7055 13.935 36.0105 14.105 35.2305 14.105C34.1505 14.105 33.2955 13.745 32.6655 13.025V16.91H30.7905V5.99H32.5755V7.04C32.8855 6.66 33.2655 6.375 33.7155 6.185C34.1755 5.995 34.6805 5.9 35.2305 5.9ZM35.0205 12.5C35.7105 12.5 36.2755 12.27 36.7155 11.81C37.1655 11.35 37.3905 10.745 37.3905 9.995C37.3905 9.245 37.1655 8.64 36.7155 8.18C36.2755 7.72 35.7105 7.49 35.0205 7.49C34.5705 7.49 34.1655 7.595 33.8055 7.805C33.4455 8.005 33.1605 8.295 32.9505 8.675C32.7405 9.055 32.6355 9.495 32.6355 9.995C32.6355 10.495 32.7405 10.935 32.9505 11.315C33.1605 11.695 33.4455 11.99 33.8055 12.2C34.1655 12.4 34.5705 12.5 35.0205 12.5ZM43.7138 14.105C42.8838 14.105 42.2338 13.88 41.7638 13.43C41.3038 12.97 41.0738 12.325 41.0738 11.495V2.87H42.9488V11.36C42.9488 12.16 43.3238 12.56 44.0738 12.56C44.3238 12.56 44.5488 12.51 44.7488 12.41L44.8388 13.91C44.4888 14.04 44.1138 14.105 43.7138 14.105ZM49.7763 12.515C50.6463 12.515 51.3713 12.225 51.9513 11.645L52.9413 12.8C52.5913 13.23 52.1413 13.555 51.5913 13.775C51.0413 13.995 50.4213 14.105 49.7313 14.105C48.8513 14.105 48.0763 13.93 47.4063 13.58C46.7363 13.23 46.2163 12.745 45.8463 12.125C45.4863 11.495 45.3063 10.785 45.3063 9.995C45.3063 9.215 45.4813 8.515 45.8313 7.895C46.1913 7.265 46.6813 6.775 47.3013 6.425C47.9313 6.075 48.6413 5.9 49.4313 5.9C50.1813 5.9 50.8613 6.065 51.4713 6.395C52.0913 6.715 52.5813 7.18 52.9413 7.79C53.3013 8.39 53.4813 9.095 53.4813 9.905L47.3463 11.105C47.5363 11.565 47.8413 11.915 48.2613 12.155C48.6813 12.395 49.1863 12.515 49.7763 12.515ZM49.4313 7.4C48.7413 7.4 48.1813 7.625 47.7513 8.075C47.3313 8.525 47.1213 9.13 47.1213 9.89V9.905L51.6513 9.035C51.5213 8.545 51.2563 8.15 50.8563 7.85C50.4663 7.55 49.9913 7.4 49.4313 7.4Z" fill="black"/>
<path d="M59.6082 3.5H64.1982C65.3182 3.5 66.3132 3.72 67.1832 4.16C68.0532 4.59 68.7282 5.205 69.2082 6.005C69.6882 6.795 69.9282 7.71 69.9282 8.75C69.9282 9.79 69.6882 10.71 69.2082 11.51C68.7282 12.3 68.0532 12.915 67.1832 13.355C66.3132 13.785 65.3182 14 64.1982 14H59.6082V3.5ZM64.1082 12.35C64.8782 12.35 65.5532 12.205 66.1332 11.915C66.7232 11.615 67.1732 11.195 67.4832 10.655C67.8032 10.105 67.9632 9.47 67.9632 8.75C67.9632 8.03 67.8032 7.4 67.4832 6.86C67.1732 6.31 66.7232 5.89 66.1332 5.6C65.5532 5.3 64.8782 5.15 64.1082 5.15H61.5582V12.35H64.1082ZM75.6308 12.515C76.5008 12.515 77.2258 12.225 77.8058 11.645L78.7958 12.8C78.4458 13.23 77.9958 13.555 77.4458 13.775C76.8958 13.995 76.2758 14.105 75.5858 14.105C74.7058 14.105 73.9308 13.93 73.2608 13.58C72.5908 13.23 72.0708 12.745 71.7008 12.125C71.3408 11.495 71.1608 10.785 71.1608 9.995C71.1608 9.215 71.3358 8.515 71.6858 7.895C72.0458 7.265 72.5358 6.775 73.1558 6.425C73.7858 6.075 74.4958 5.9 75.2858 5.9C76.0358 5.9 76.7158 6.065 77.3258 6.395C77.9458 6.715 78.4358 7.18 78.7958 7.79C79.1558 8.39 79.3358 9.095 79.3358 9.905L73.2008 11.105C73.3908 11.565 73.6958 11.915 74.1158 12.155C74.5358 12.395 75.0408 12.515 75.6308 12.515ZM75.2858 7.4C74.5958 7.4 74.0358 7.625 73.6058 8.075C73.1858 8.525 72.9758 9.13 72.9758 9.89V9.905L77.5058 9.035C77.3758 8.545 77.1108 8.15 76.7108 7.85C76.3208 7.55 75.8458 7.4 75.2858 7.4ZM83.6122 14.105C82.9622 14.105 82.3272 14.02 81.7072 13.85C81.0872 13.68 80.5922 13.465 80.2222 13.205L80.9422 11.78C81.3022 12.02 81.7322 12.215 82.2322 12.365C82.7422 12.505 83.2422 12.575 83.7322 12.575C84.8522 12.575 85.4122 12.28 85.4122 11.69C85.4122 11.41 85.2672 11.215 84.9772 11.105C84.6972 10.995 84.2422 10.89 83.6122 10.79C82.9522 10.69 82.4122 10.575 81.9922 10.445C81.5822 10.315 81.2222 10.09 80.9122 9.77C80.6122 9.44 80.4622 8.985 80.4622 8.405C80.4622 7.645 80.7772 7.04 81.4072 6.59C82.0472 6.13 82.9072 5.9 83.9872 5.9C84.5372 5.9 85.0872 5.965 85.6372 6.095C86.1872 6.215 86.6372 6.38 86.9872 6.59L86.2672 8.015C85.5872 7.615 84.8222 7.415 83.9722 7.415C83.4222 7.415 83.0022 7.5 82.7122 7.67C82.4322 7.83 82.2922 8.045 82.2922 8.315C82.2922 8.615 82.4422 8.83 82.7422 8.96C83.0522 9.08 83.5272 9.195 84.1672 9.305C84.8072 9.405 85.3322 9.52 85.7422 9.65C86.1522 9.78 86.5022 10 86.7922 10.31C87.0922 10.62 87.2422 11.06 87.2422 11.63C87.2422 12.38 86.9172 12.98 86.2672 13.43C85.6172 13.88 84.7322 14.105 83.6122 14.105ZM88.857 5.99H90.732V14H88.857V5.99ZM89.802 4.67C89.462 4.67 89.177 4.565 88.947 4.355C88.717 4.135 88.602 3.865 88.602 3.545C88.602 3.225 88.717 2.96 88.947 2.75C89.177 2.53 89.462 2.42 89.802 2.42C90.142 2.42 90.427 2.525 90.657 2.735C90.887 2.935 91.002 3.19 91.002 3.5C91.002 3.83 90.887 4.11 90.657 4.34C90.437 4.56 90.152 4.67 89.802 4.67ZM101.143 5.99V12.785C101.143 15.605 99.7029 17.015 96.8229 17.015C96.0529 17.015 95.3229 16.915 94.6329 16.715C93.9429 16.525 93.3729 16.245 92.9229 15.875L93.7629 14.465C94.1129 14.755 94.5529 14.985 95.0829 15.155C95.6229 15.335 96.1679 15.425 96.7179 15.425C97.5979 15.425 98.2429 15.225 98.6529 14.825C99.0629 14.425 99.2679 13.815 99.2679 12.995V12.575C98.9479 12.925 98.5579 13.19 98.0979 13.37C97.6379 13.55 97.1329 13.64 96.5829 13.64C95.8229 13.64 95.1329 13.48 94.5129 13.16C93.9029 12.83 93.4179 12.37 93.0579 11.78C92.7079 11.19 92.5329 10.515 92.5329 9.755C92.5329 8.995 92.7079 8.325 93.0579 7.745C93.4179 7.155 93.9029 6.7 94.5129 6.38C95.1329 6.06 95.8229 5.9 96.5829 5.9C97.1629 5.9 97.6879 5.995 98.1579 6.185C98.6379 6.375 99.0379 6.665 99.3579 7.055V5.99H101.143ZM96.8679 12.05C97.5779 12.05 98.1579 11.84 98.6079 11.42C99.0679 10.99 99.2979 10.435 99.2979 9.755C99.2979 9.085 99.0679 8.54 98.6079 8.12C98.1579 7.7 97.5779 7.49 96.8679 7.49C96.1479 7.49 95.5579 7.7 95.0979 8.12C94.6479 8.54 94.4229 9.085 94.4229 9.755C94.4229 10.435 94.6479 10.99 95.0979 11.42C95.5579 11.84 96.1479 12.05 96.8679 12.05ZM108.153 5.9C109.163 5.9 109.973 6.195 110.583 6.785C111.193 7.375 111.498 8.25 111.498 9.41V14H109.623V9.65C109.623 8.95 109.458 8.425 109.128 8.075C108.798 7.715 108.328 7.535 107.718 7.535C107.028 7.535 106.483 7.745 106.083 8.165C105.683 8.575 105.483 9.17 105.483 9.95V14H103.608V5.99H105.393V7.025C105.703 6.655 106.093 6.375 106.563 6.185C107.033 5.995 107.563 5.9 108.153 5.9Z" fill="#BD7048"/>
</svg>
